HIERARCHY
ROOT newVegas:Hips
{
	OFFSET 0.000000 96.479958 0.000000
	CHANNELS 6 Xposition Yposition Zposition Xrotation Yrotation Zrotation
	JOINT newVegas:Pelvis
	{
		OFFSET 0.000000 0.000000 0.000000
		CHANNELS 3 Xrotation Yrotation Zrotation
		JOINT newVegas:LeftUpLeg
		{
			OFFSET 18.735201 -5.666702 -4.541200
			CHANNELS 3 Xrotation Yrotation Zrotation
			JOINT newVegas:LeftLeg
			{
				OFFSET -0.021200 -31.938179 0.493100
				CHANNELS 3 Xrotation Yrotation Zrotation
				JOINT newVegas:LeftFoot
				{
					OFFSET 0.021200 -31.938179 -4.336299
					CHANNELS 3 Xrotation Yrotation Zrotation
					JOINT newVegas:LeftToeBase
					{
						OFFSET 0.943001 -26.722000 15.023500
						CHANNELS 3 Xrotation Yrotation Zrotation
						End Site
						{
							OFFSET 0.000000 30.670183 0.000000
						}
					}
				}
				JOINT newVegas:Left_PantLeg
				{
					OFFSET 0.663870 -9.044666 -1.108900
					CHANNELS 3 Xrotation Yrotation Zrotation
					End Site
					{
						OFFSET 1.415995 20.635357 0.000000
					}
				}
			}
		}
		JOINT newVegas:RightUpLeg
		{
			OFFSET -18.735201 -5.666702 -4.541200
			CHANNELS 3 Xrotation Yrotation Zrotation
			JOINT newVegas:RightLeg
			{
				OFFSET 0.018946 -31.938133 0.493100
				CHANNELS 3 Xrotation Yrotation Zrotation
				JOINT newVegas:RightFoot
				{
					OFFSET -0.018946 -31.938126 -4.336299
					CHANNELS 3 Xrotation Yrotation Zrotation
					JOINT newVegas:RightToeBase
					{
						OFFSET -0.943001 -26.722004 15.023500
						CHANNELS 3 Xrotation Yrotation Zrotation
						End Site
						{
							OFFSET 0.000000 30.670187 0.000000
						}
					}
				}
				JOINT newVegas:Right_PantLeg
				{
					OFFSET -0.661674 -9.044716 -1.108900
					CHANNELS 3 Xrotation Yrotation Zrotation
					End Site
					{
						OFFSET -1.415958 20.635269 0.000000
					}
				}
			}
		}
	}
	JOINT newVegas:Spine
	{
		OFFSET 0.000000 10.199997 -0.299500
		CHANNELS 3 Xrotation Yrotation Zrotation
		JOINT newVegas:Spine1
		{
			OFFSET 0.000000 11.900002 -1.516600
			CHANNELS 3 Xrotation Yrotation Zrotation
			JOINT newVegas:Spine2
			{
				OFFSET 0.000000 13.600006 -2.842500
				CHANNELS 3 Xrotation Yrotation Zrotation
				JOINT newVegas:Neck
				{
					OFFSET 0.000000 9.624100 -2.890100
					CHANNELS 3 Xrotation Yrotation Zrotation
					JOINT newVegas:Head
					{
						OFFSET 0.000000 14.068802 -1.351900
						CHANNELS 3 Xrotation Yrotation Zrotation
						JOINT newVegas:Hair_Back
						{
							OFFSET 0.000000 3.231903 -17.524799
							CHANNELS 3 Xrotation Yrotation Zrotation
							End Site
							{
								OFFSET 0.000000 19.849884 0.000000
							}
						}
						JOINT newVegas:Hair_Front
						{
							OFFSET 0.000000 31.260406 4.573800
							CHANNELS 3 Xrotation Yrotation Zrotation
							JOINT newVegas:Hair_Front1
							{
								OFFSET 0.000000 2.284103 11.993300
								CHANNELS 3 Xrotation Yrotation Zrotation
								JOINT newVegas:Hair_Front2
								{
									OFFSET 0.000000 2.284103 11.993300
									CHANNELS 3 Xrotation Yrotation Zrotation
									End Site
									{
										OFFSET 0.000000 12.208862 0.000000
									}
								}
							}
						}
						JOINT newVegas:Jowel
						{
							OFFSET 0.000000 -7.458206 6.864100
							CHANNELS 3 Xrotation Yrotation Zrotation
							End Site
							{
								OFFSET 0.000000 19.849884 0.000000
							}
						}
					}
				}
				JOINT newVegas:LeftShoulder
				{
					OFFSET 15.263000 10.923401 -0.547700
					CHANNELS 3 Xrotation Yrotation Zrotation
					JOINT newVegas:LeftArm
					{
						OFFSET 25.438599 -2.830597 -13.032500
						CHANNELS 3 Xrotation Yrotation Zrotation
						JOINT newVegas:LeftForeArm
						{
							OFFSET 29.960503 0.000000 0.000000
							CHANNELS 3 Xrotation Yrotation Zrotation
							JOINT newVegas:LeftHand
							{
								OFFSET 27.849251 0.000000 0.000000
								CHANNELS 3 Xrotation Yrotation Zrotation
								JOINT newVegas:LeftHandThumb1
								{
									OFFSET 4.487587 -3.305161 6.305391
									CHANNELS 3 Xrotation Yrotation Zrotation
									JOINT newVegas:LeftHandThumb2
									{
										OFFSET 5.480453 -3.164139 3.164143
										CHANNELS 3 Xrotation Yrotation Zrotation
										JOINT newVegas:LeftHandThumb3
										{
											OFFSET 5.159721 -2.978973 2.978967
											CHANNELS 3 Xrotation Yrotation Zrotation
											End Site
											{
												OFFSET 2.494507 5.926697 1.738678
											}
										}
									}
								}
								JOINT newVegas:LeftHandIndex1
								{
									OFFSET 18.578728 -0.527832 5.208049
									CHANNELS 3 Xrotation Yrotation Zrotation
									JOINT newVegas:LeftHandIndex2
									{
										OFFSET 3.192009 0.000000 0.000000
										CHANNELS 3 Xrotation Yrotation Zrotation
										JOINT newVegas:LeftHandIndex3
										{
											OFFSET 3.835129 0.000000 0.000000
											CHANNELS 3 Xrotation Yrotation Zrotation
											End Site
											{
												OFFSET -0.034599 3.816971 0.371180
											}
										}
									}
								}
								JOINT newVegas:LeftHandMiddle1
								{
									OFFSET 18.476105 0.000000 0.000000
									CHANNELS 3 Xrotation Yrotation Zrotation
									JOINT newVegas:LeftHandMiddle2
									{
										OFFSET 3.324875 0.000000 0.000000
										CHANNELS 3 Xrotation Yrotation Zrotation
										JOINT newVegas:LeftHandMiddle3
										{
											OFFSET 4.596550 0.000000 0.000000
											CHANNELS 3 Xrotation Yrotation Zrotation
											End Site
											{
												OFFSET 0.057701 4.578827 0.399218
											}
										}
									}
								}
								JOINT newVegas:LeftHandRing1
								{
									OFFSET 17.732719 0.121887 -4.201567
									CHANNELS 3 Xrotation Yrotation Zrotation
									JOINT newVegas:LeftHandRing2
									{
										OFFSET 2.733170 0.000000 0.000000
										CHANNELS 3 Xrotation Yrotation Zrotation
										JOINT newVegas:LeftHandRing3
										{
											OFFSET 3.178268 0.000000 0.000000
											CHANNELS 3 Xrotation Yrotation Zrotation
											End Site
											{
												OFFSET 0.119102 3.170624 0.185394
											}
										}
									}
								}
								JOINT newVegas:LeftHandPinky1
								{
									OFFSET 15.989624 -0.606689 -7.535461
									CHANNELS 3 Xrotation Yrotation Zrotation
									JOINT newVegas:LeftHandPinky2
									{
										OFFSET 2.538986 0.000000 0.000000
										CHANNELS 3 Xrotation Yrotation Zrotation
										JOINT newVegas:LeftHandPinky3
										{
											OFFSET 2.593102 0.000000 0.000000
											CHANNELS 3 Xrotation Yrotation Zrotation
											End Site
											{
												OFFSET -0.150902 2.584198 0.152708
											}
										}
									}
								}
							}
							JOINT newVegas:Left_Sleeve
							{
								OFFSET 0.267448 -0.649796 0.577675
								CHANNELS 3 Xrotation Yrotation Zrotation
								End Site
								{
									OFFSET 0.000000 15.991241 0.000000
								}
							}
							JOINT newVegas:Left_CapeC
							{
								OFFSET 15.715958 -8.608795 -6.935905
								CHANNELS 3 Xrotation Yrotation Zrotation
								JOINT newVegas:Left_CapeC1
								{
									OFFSET 0.000000 -8.688499 0.000000
									CHANNELS 3 Xrotation Yrotation Zrotation
									End Site
									{
										OFFSET 0.000000 8.688499 0.000000
									}
								}
							}
						}
						JOINT newVegas:Left_CapeB
						{
							OFFSET 26.118385 -8.608795 -7.079235
							CHANNELS 3 Xrotation Yrotation Zrotation
							JOINT newVegas:Left_CapeB1
							{
								OFFSET 0.000000 -8.688499 0.000000
								CHANNELS 3 Xrotation Yrotation Zrotation
								End Site
								{
									OFFSET 0.000000 8.688499 0.000000
								}
							}
						}
						JOINT newVegas:Left_CapeA
						{
							OFFSET 5.115639 -8.608795 -10.395809
							CHANNELS 3 Xrotation Yrotation Zrotation
							JOINT newVegas:Left_CapeA1
							{
								OFFSET 0.000000 -8.688499 0.000000
								CHANNELS 3 Xrotation Yrotation Zrotation
								End Site
								{
									OFFSET 0.000000 8.688499 0.000000
								}
							}
						}
					}
				}
				JOINT newVegas:RightShoulder
				{
					OFFSET -15.263000 10.923401 -0.547700
					CHANNELS 3 Xrotation Yrotation Zrotation
					JOINT newVegas:RightArm
					{
						OFFSET -25.438599 -2.830597 -13.032500
						CHANNELS 3 Xrotation Yrotation Zrotation
						JOINT newVegas:RightForeArm
						{
							OFFSET -29.960503 0.000000 0.000000
							CHANNELS 3 Xrotation Yrotation Zrotation
							JOINT newVegas:RightHand
							{
								OFFSET -27.849251 0.000000 0.000000
								CHANNELS 3 Xrotation Yrotation Zrotation
								JOINT newVegas:RightHandThumb1
								{
									OFFSET -4.487587 -3.305161 6.305391
									CHANNELS 3 Xrotation Yrotation Zrotation
									JOINT newVegas:RightHandThumb2
									{
										OFFSET -5.480453 -3.164139 3.164143
										CHANNELS 3 Xrotation Yrotation Zrotation
										JOINT newVegas:RightHandThumb3
										{
											OFFSET -5.159721 -2.978973 2.978967
											CHANNELS 3 Xrotation Yrotation Zrotation
											End Site
											{
												OFFSET -2.494507 5.926697 1.738678
											}
										}
									}
								}
								JOINT newVegas:RightHandIndex1
								{
									OFFSET -18.578728 -0.527832 5.208049
									CHANNELS 3 Xrotation Yrotation Zrotation
									JOINT newVegas:RightHandIndex2
									{
										OFFSET -3.192009 0.000000 0.000000
										CHANNELS 3 Xrotation Yrotation Zrotation
										JOINT newVegas:RightHandIndex3
										{
											OFFSET -3.835129 0.000000 0.000000
											CHANNELS 3 Xrotation Yrotation Zrotation
											End Site
											{
												OFFSET 0.034599 3.816971 0.371180
											}
										}
									}
								}
								JOINT newVegas:RightHandMiddle1
								{
									OFFSET -18.476105 0.000000 0.000000
									CHANNELS 3 Xrotation Yrotation Zrotation
									JOINT newVegas:RightHandMiddle2
									{
										OFFSET -3.324875 0.000000 0.000000
										CHANNELS 3 Xrotation Yrotation Zrotation
										JOINT newVegas:RightHandMiddle3
										{
											OFFSET -4.596550 0.000000 0.000000
											CHANNELS 3 Xrotation Yrotation Zrotation
											End Site
											{
												OFFSET -0.057701 4.578827 0.399218
											}
										}
									}
								}
								JOINT newVegas:RightHandRing1
								{
									OFFSET -17.732719 0.121887 -4.201567
									CHANNELS 3 Xrotation Yrotation Zrotation
									JOINT newVegas:RightHandRing2
									{
										OFFSET -2.733170 0.000000 0.000000
										CHANNELS 3 Xrotation Yrotation Zrotation
										JOINT newVegas:RightHandRing3
										{
											OFFSET -3.178268 0.000000 0.000000
											CHANNELS 3 Xrotation Yrotation Zrotation
											End Site
											{
												OFFSET -0.119102 3.170624 0.185394
											}
										}
									}
								}
								JOINT newVegas:RightHandPinky1
								{
									OFFSET -15.989624 -0.606689 -7.535461
									CHANNELS 3 Xrotation Yrotation Zrotation
									JOINT newVegas:RightHandPinky2
									{
										OFFSET -2.538986 0.000000 0.000000
										CHANNELS 3 Xrotation Yrotation Zrotation
										JOINT newVegas:RightHandPinky3
										{
											OFFSET -2.593102 0.000000 0.000000
											CHANNELS 3 Xrotation Yrotation Zrotation
											End Site
											{
												OFFSET 0.150902 2.584198 0.152708
											}
										}
									}
								}
							}
							JOINT newVegas:Right_CapeC
							{
								OFFSET -15.715958 -8.608795 -6.935905
								CHANNELS 3 Xrotation Yrotation Zrotation
								JOINT newVegas:Right_CapeC1
								{
									OFFSET 0.000000 -8.688499 0.000000
									CHANNELS 3 Xrotation Yrotation Zrotation
									End Site
									{
										OFFSET 0.000000 8.688499 0.000000
									}
								}
							}
							JOINT newVegas:Right_Sleeve
							{
								OFFSET -0.267448 -0.649994 0.577675
								CHANNELS 3 Xrotation Yrotation Zrotation
								End Site
								{
									OFFSET 0.000000 15.991302 0.000000
								}
							}
						}
						JOINT newVegas:Right_CapeA
						{
							OFFSET -5.115540 -8.608795 -10.395824
							CHANNELS 3 Xrotation Yrotation Zrotation
							JOINT newVegas:Right_CapeA1
							{
								OFFSET 0.000000 -8.688499 0.000000
								CHANNELS 3 Xrotation Yrotation Zrotation
								End Site
								{
									OFFSET 0.000000 8.688499 0.000000
								}
							}
						}
						JOINT newVegas:Right_CapeB
						{
							OFFSET -26.118187 -8.608795 -7.079266
							CHANNELS 3 Xrotation Yrotation Zrotation
							JOINT newVegas:Right_CapeB1
							{
								OFFSET 0.000000 -8.688499 0.000000
								CHANNELS 3 Xrotation Yrotation Zrotation
								End Site
								{
									OFFSET 0.000000 8.688499 0.000000
								}
							}
						}
					}
				}
				JOINT newVegas:Left_Collar
				{
					OFFSET 18.625099 8.655502 8.828100
					CHANNELS 3 Xrotation Yrotation Zrotation
					JOINT newVegas:Left_Collar1
					{
						OFFSET 14.783401 10.540405 -1.259500
						CHANNELS 3 Xrotation Yrotation Zrotation
						End Site
						{
							OFFSET 0.000000 18.199875 0.000000
						}
					}
				}
				JOINT newVegas:Collar_Back
				{
					OFFSET 0.000000 15.630707 -20.132601
					CHANNELS 3 Xrotation Yrotation Zrotation
					End Site
					{
						OFFSET 0.000000 22.523010 0.000000
					}
				}
				JOINT newVegas:Left_Peck
				{
					OFFSET 17.239599 -5.132599 25.482599
					CHANNELS 3 Xrotation Yrotation Zrotation
					End Site
					{
						OFFSET 0.000000 22.523010 0.000000
					}
				}
				JOINT newVegas:Right_Peck
				{
					OFFSET -17.239599 -5.132202 25.482599
					CHANNELS 3 Xrotation Yrotation Zrotation
					End Site
					{
						OFFSET 0.000000 22.523010 0.000000
					}
				}
				JOINT newVegas:Right_Collar
				{
					OFFSET -18.625099 8.655792 8.828100
					CHANNELS 3 Xrotation Yrotation Zrotation
					JOINT newVegas:Right_Collar1
					{
						OFFSET -14.783401 10.539993 -1.259500
						CHANNELS 3 Xrotation Yrotation Zrotation
						End Site
						{
							OFFSET 0.000000 18.199631 0.000000
						}
					}
				}
			}
		}
		JOINT newVegas:Belly
		{
			OFFSET 0.000000 -6.540398 9.014299
			CHANNELS 3 Xrotation Yrotation Zrotation
			End Site
			{
				OFFSET 0.000000 11.566666 0.000000
			}
		}
	}
	JOINT newVegas:ElvisFacialAnim_Joint
	{
		OFFSET 1.000000 -95.330101 -8.825800
		CHANNELS 3 Xrotation Yrotation Zrotation
		End Site
		{
			OFFSET 0.000000 35.315800 0.000000
		}
	}
}
MOTION
Frames: 4
Frame Time: 0.016667
-4.305383 78.532303 5.662308 19.375806 -43.514920 5.469193 -0.000001 -0.000000 -0.000000 -80.537998 -13.446032 15.110979 48.371751 -8.740785 4.579635 25.665093 -2.227067 -14.455803 -0.000000 0.000001 -0.000000 -0.000001 0.000002 -0.000000 -32.875569 -7.133337 -17.292193 58.300213 -5.794060 4.293835 -24.193867 -23.448584 23.735165 0.000000 0.000000 0.000000 0.000000 -0.000001 -0.000002 0.691442 6.289171 0.433707 -1.588677 4.492982 -2.192220 -1.597444 -0.195616 1.993554 4.942508 2.712381 -1.664145 4.942517 2.712377 -1.664146 -0.000001 0.000001 0.000000 4.942445 2.712377 -1.664141 4.942584 2.712403 -1.664156 -0.000001 0.000002 -0.000000 -0.000001 0.000001 0.000000 3.544244 4.756001 -11.623020 -54.038845 -33.116428 -50.381541 -0.000182 -81.882357 -0.000163 -58.768382 25.992616 38.870316 -14.557462 10.837983 12.229956 0.749539 -4.257861 13.305490 0.000001 -0.000002 -0.000003 -0.809531 2.578168 -31.496458 3.095891 5.163769 -61.866972 -0.000001 -0.000000 -0.000003 -2.430844 1.729215 -41.460935 2.952334 5.084727 -60.259931 0.000000 -0.000000 0.000001 -6.054132 -0.166598 -49.857581 3.046262 5.137018 -61.313966 0.000000 -0.000000 -0.000004 -8.298313 -6.522644 -38.520173 2.848771 5.024373 -59.084415 0.000000 -0.000000 0.000002 0.000002 -0.000000 -0.000000 0.000002 -0.000000 -0.000000 0.000001 0.000000 0.000000 -0.000002 0.000002 -0.000001 -0.000002 0.000001 -0.000000 -0.000002 0.000002 -0.000001 -0.000003 0.000001 -0.000001 -14.733698 2.115980 -4.463085 72.337543 138.834045 -52.653498 -0.000013 29.080688 0.000003 -49.752450 -7.371295 -31.498749 8.377142 -4.904141 11.021983 21.620201 -18.183915 -18.379209 -0.000001 -0.000001 0.000001 0.558935 -4.406602 25.436644 1.653043 -3.560344 49.799094 -0.000000 0.000000 0.000002 10.969838 -12.875549 52.800825 6.387577 -4.324391 111.833686 -0.000001 -0.000001 -0.000000 3.705093 -7.151303 57.622440 5.328208 -4.608666 98.293444 0.000002 0.000001 0.000003 0.474844 -5.173011 58.987658 3.194318 -4.421910 71.674147 0.000000 0.000001 0.000003 0.000003 0.000003 -0.000000 0.000001 0.000000 -0.000000 0.000003 0.000002 -0.000000 -0.000001 -0.000001 -0.000000 -0.000001 -0.000001 -0.000000 -0.000001 -0.000001 -0.000000 -0.000001 -0.000001 0.000000 0.000000 -0.000002 0.000000 0.000000 -0.000002 0.000000 0.000000 -0.000002 0.000000 0.000000 -0.000002 0.000000 0.000000 -0.000002 0.000000 0.000000 -0.000002 0.000000 0.000000 -0.000002 0.000000 -0.000000 0.000001 -0.000001 -0.000001 -0.000000 -0.000000 
-4.170510 79.559570 2.149757 20.237167 -43.455443 6.196526 0.000001 0.000001 -0.000001 -82.406943 -10.986276 13.978744 55.304926 -9.670513 2.486901 20.169682 -1.762257 -16.712985 0.000000 -0.000000 0.000001 0.000001 -0.000001 0.000000 -36.313056 -7.441668 -15.511314 59.252315 -6.680573 5.611372 -24.169009 -22.945238 19.963789 -0.000000 -0.000000 -0.000000 -0.000002 0.000000 -0.000000 0.960912 6.217832 0.570860 -1.410113 4.462637 -2.203676 -1.413477 -0.229847 1.985879 4.816237 2.698092 -1.624423 4.816257 2.698095 -1.624426 0.000000 0.000001 0.000000 4.816255 2.698109 -1.624427 4.816323 2.698100 -1.624428 -0.000002 -0.000001 0.000001 0.000000 0.000001 0.000000 3.460879 4.416666 -11.409037 -54.824603 -33.117753 -50.523401 -0.000095 -81.497039 -0.000081 -58.132341 25.445096 38.283982 -14.557462 10.837984 12.229956 0.749539 -4.257863 13.305493 -0.000000 0.000000 -0.000004 -0.809531 2.578167 -31.496458 3.095892 5.163768 -61.866966 -0.000000 0.000001 -0.000001 -2.430845 1.729215 -41.460935 2.952335 5.084730 -60.259945 0.000001 0.000001 -0.000001 -6.054133 -0.166599 -49.857584 3.046265 5.137021 -61.313973 0.000001 -0.000001 0.000002 -8.298314 -6.522643 -38.520170 2.848770 5.024371 -59.084408 0.000001 -0.000003 0.000001 -0.000001 -0.000002 0.000001 -0.000001 -0.000002 0.000001 -0.000001 -0.000001 0.000001 0.000001 0.000000 -0.000001 0.000001 -0.000002 -0.000001 0.000001 0.000000 -0.000001 -0.000000 -0.000001 -0.000002 -14.724952 2.110613 -4.402637 72.362016 139.310587 -53.074630 -0.000010 28.936950 0.000019 -48.762418 -6.817464 -31.328548 8.377141 -4.904142 11.021983 21.620197 -18.183914 -18.379204 -0.000001 -0.000003 0.000001 0.558934 -4.406602 25.436647 1.653044 -3.560342 49.799094 -0.000001 0.000000 0.000002 10.969836 -12.875549 52.800825 6.387578 -4.324390 111.833686 0.000001 0.000001 -0.000006 3.705091 -7.151302 57.622440 5.328204 -4.608666 98.293444 0.000001 0.000001 0.000002 0.474842 -5.173004 58.987658 3.194317 -4.421906 71.674154 0.000000 0.000003 -0.000001 0.000003 -0.000001 -0.000000 0.000003 -0.000003 -0.000002 0.000003 -0.000001 -0.000000 -0.000000 0.000001 0.000001 -0.000001 0.000001 -0.000000 -0.000000 0.000001 0.000001 -0.000000 0.000001 -0.000000 -0.000000 -0.000002 0.000000 -0.000000 -0.000002 0.000000 -0.000000 -0.000002 0.000000 -0.000000 -0.000002 0.000000 -0.000000 -0.000002 0.000000 -0.000000 -0.000002 0.000000 -0.000000 -0.000002 0.000000 0.000000 -0.000001 0.000000 0.000001 0.000001 -0.000001 
-4.056305 80.487923 -1.204947 21.515796 -44.002322 7.172377 -0.000002 -0.000001 -0.000000 -83.120131 -8.376789 13.254432 60.015445 -10.622642 0.776323 16.676255 -2.769346 -19.695694 0.000001 -0.000002 0.000000 -0.000001 0.000002 0.000000 -39.977661 -7.943547 -14.242509 59.598947 -7.201945 7.245800 -23.426108 -21.176532 16.049582 0.000000 0.000000 -0.000000 -0.000002 0.000000 0.000002 1.086790 6.575604 0.714202 -1.310868 4.621464 -2.233294 -1.314411 -0.079137 1.955559 4.714074 2.662062 -1.587216 4.714066 2.662072 -1.587215 0.000001 0.000000 -0.000000 4.714158 2.662066 -1.587220 4.714092 2.662068 -1.587220 -0.000002 -0.000001 0.000001 0.000001 0.000000 -0.000000 3.451686 4.257295 -11.406563 -55.761535 -33.679325 -50.844854 0.000147 -80.674192 0.000121 -57.419303 24.773812 37.437971 -14.557462 10.837986 12.229956 0.749540 -4.257865 13.305494 0.000001 -0.000001 -0.000006 -0.809532 2.578168 -31.496458 3.095892 5.163769 -61.866972 0.000001 0.000001 -0.000001 -2.430846 1.729215 -41.460932 2.952334 5.084726 -60.259938 0.000001 -0.000000 -0.000001 -6.054138 -0.166596 -49.857584 3.046267 5.137019 -61.313966 0.000001 -0.000001 -0.000000 -8.298310 -6.522642 -38.520173 2.848774 5.024375 -59.084415 -0.000000 -0.000002 -0.000001 0.000002 -0.000001 0.000001 0.000002 -0.000001 0.000001 0.000002 -0.000000 0.000001 0.000001 0.000001 -0.000001 0.000001 0.000000 -0.000001 0.000001 0.000001 -0.000001 -0.000001 0.000000 -0.000001 -14.702144 2.142272 -4.298179 72.738653 139.648982 -53.739006 0.000010 28.981982 -0.000013 -47.783426 -6.248424 -31.304147 8.377142 -4.904142 11.021985 21.620202 -18.183914 -18.379207 0.000002 -0.000002 0.000003 0.558935 -4.406602 25.436649 1.653044 -3.560343 49.799094 -0.000000 0.000001 0.000001 10.969836 -12.875549 52.800825 6.387578 -4.324393 111.833686 -0.000002 -0.000001 0.000002 3.705092 -7.151304 57.622440 5.328205 -4.608666 98.293444 0.000000 -0.000003 0.000005 0.474847 -5.173006 58.987658 3.194318 -4.421905 71.674161 -0.000001 -0.000000 0.000003 0.000004 0.000001 0.000001 0.000004 0.000000 -0.000000 0.000004 0.000001 0.000001 -0.000002 0.000000 0.000000 -0.000002 0.000000 0.000000 -0.000002 0.000000 0.000000 -0.000002 -0.000000 0.000000 -0.000001 0.000001 -0.000000 -0.000001 0.000001 -0.000000 -0.000001 0.000001 -0.000000 -0.000001 0.000001 -0.000000 -0.000001 0.000001 -0.000000 -0.000001 0.000001 -0.000000 -0.000001 0.000001 -0.000000 0.000001 0.000000 -0.000001 -0.000002 -0.000001 -0.000000 
-4.012775 81.128227 -4.421488 23.191405 -45.087609 8.308609 0.000000 0.000002 -0.000001 -83.374398 -5.855733 12.550648 63.184359 -10.216822 -0.554569 14.957597 -6.295484 -21.794324 0.000001 0.000002 -0.000000 -0.000000 -0.000001 0.000001 -43.606977 -8.730560 -13.484873 59.625837 -7.531276 9.180651 -22.233439 -17.758142 12.567602 -0.000000 0.000000 -0.000000 -0.000000 0.000001 -0.000001 1.067460 7.302789 0.931658 -1.289602 4.928870 -2.265305 -1.295695 0.217594 1.919090 4.630799 2.609305 -1.555543 4.630787 2.609308 -1.555537 -0.000000 0.000001 -0.000000 4.630716 2.609314 -1.555539 4.630878 2.609296 -1.555543 -0.000002 0.000001 -0.000001 -0.000000 0.000001 0.000000 3.505653 4.264413 -11.583830 -56.751874 -34.575514 -51.320873 0.000048 -79.627636 -0.000000 -56.773239 24.062569 36.543373 -14.557462 10.837983 12.229957 0.749541 -4.257864 13.305495 0.000003 -0.000001 -0.000004 -0.809529 2.578168 -31.496458 3.095892 5.163767 -61.866959 0.000000 -0.000000 0.000001 -2.430845 1.729214 -41.460935 2.952336 5.084725 -60.259938 0.000000 0.000002 0.000001 -6.054136 -0.166599 -49.857584 3.046264 5.137020 -61.313966 -0.000000 -0.000000 -0.000002 -8.298315 -6.522643 -38.520173 2.848772 5.024374 -59.084415 0.000001 -0.000003 -0.000002 0.000002 0.000001 -0.000001 0.000002 0.000001 -0.000001 0.000001 0.000002 -0.000001 0.000001 0.000001 -0.000002 0.000001 -0.000000 -0.000003 0.000001 0.000001 -0.000002 -0.000001 0.000000 -0.000002 -14.671339 2.216729 -4.184590 73.273703 139.812934 -54.505360 -0.000006 29.166158 0.000003 -46.933549 -5.789918 -31.371790 8.377141 -4.904142 11.021986 21.620195 -18.183917 -18.379202 0.000001 0.000000 -0.000000 0.558936 -4.406602 25.436646 1.653043 -3.560342 49.799080 -0.000000 -0.000001 0.000003 10.969837 -12.875547 52.800825 6.387579 -4.324390 111.833686 0.000002 -0.000001 -0.000002 3.705091 -7.151303 57.622447 5.328203 -4.608666 98.293444 -0.000001 0.000002 0.000002 0.474840 -5.173006 58.987658 3.194318 -4.421911 71.674154 -0.000000 0.000003 -0.000001 0.000002 0.000001 0.000000 -0.000001 0.000001 0.000001 0.000002 0.000001 0.000000 0.000002 0.000001 0.000000 0.000002 0.000000 0.000001 0.000002 0.000001 0.000000 0.000002 0.000001 0.000001 -0.000001 0.000001 -0.000000 -0.000001 0.000001 -0.000000 -0.000001 0.000001 -0.000000 -0.000001 0.000001 -0.000000 -0.000001 0.000001 -0.000000 -0.000001 0.000001 -0.000000 -0.000001 0.000001 -0.000000 -0.000000 0.000000 -0.000001 0.000000 0.000002 -0.000001 
